<svg width="25" height="27" viewBox="0 0 25 27" fill="none" xmlns="http://www.w3.org/2000/svg">
<path d="M2.62157 0C0.819241 0 0 1.5074 0 2.55603V12.0232C0 12.1543 0.0655393 12.2198 0.196618 12.2198H1.76956C2.03172 12.2198 2.22833 12.0887 2.35941 11.9577L9.79812 4.51896C9.89643 4.42065 9.96197 4.25931 9.96197 4.12823V2.55603C9.96197 1.0814 8.71672 0 7.47148 0H2.62157Z" fill="#434343"/>
<path d="M16.2177 0.852011L5.01379 12.0887C4.94821 12.1543 4.98098 12.2198 5.04654 12.2198H7.90433C8.02984 12.2198 8.16648 12.1543 8.23202 12.0887L15.7669 4.55389C16.6189 3.70188 18.1594 4.97989 17.2419 5.89744L11.1489 11.9904C11.0178 12.1215 11.0833 12.2198 11.1489 12.2198H13.9973C14.1284 12.2198 14.2267 12.1871 14.325 12.0887L18.9347 7.47903C19.8523 6.56148 21.36 7.87227 20.4097 8.82259L17.2419 11.9904C17.1436 12.0887 17.1436 12.2198 17.2419 12.2198H20.1533C20.1533 12.2198 20.2788 12.2186 20.3499 12.1871C20.4165 12.1575 20.498 12.0735 20.498 12.0735L24.4757 8.12687C24.7051 7.89748 25 7.56979 25 7.0127V2.62157C25 1.17971 23.9186 0 22.3784 0H18.1512C17.2008 0 16.5782 0.524314 16.2177 0.852011Z" fill="#434343"/>
<path d="M2.62157 26.395C0.819241 26.395 0 24.8876 0 23.839V14.3718C0 14.2408 0.0655393 14.1752 0.196618 14.1752H1.76956C2.03172 14.1752 2.22833 14.3063 2.35941 14.4374L9.79812 21.8761C9.89643 21.9744 9.96197 22.1357 9.96197 22.2668V23.839C9.96197 25.3136 8.71672 26.395 7.47148 26.395H2.62157Z" fill="#434343"/>
<path d="M16.2177 25.543L5.01379 14.3063C4.94821 14.2408 4.98098 14.1752 5.04654 14.1752H7.90433C8.02984 14.1752 8.16648 14.2408 8.23202 14.3063L15.7669 21.8412C16.6189 22.6932 18.1594 21.4151 17.2419 20.4976L11.1489 14.4046C11.0178 14.2735 11.0833 14.1752 11.1489 14.1752H13.9973C14.1284 14.1752 14.2267 14.208 14.325 14.3063L18.9347 18.916C19.8523 19.8336 21.36 18.5228 20.4097 17.5725L17.2419 14.4046C17.1436 14.3063 17.1436 14.1752 17.2419 14.1752H20.1533C20.1533 14.1752 20.2788 14.1764 20.3499 14.208C20.4165 14.2376 20.498 14.3215 20.498 14.3215L24.4757 18.2682C24.7051 18.4976 25 18.8253 25 19.3823V23.7735C25 25.2153 23.9186 26.395 22.3784 26.395H18.1512C17.2008 26.395 16.5782 25.8707 16.2177 25.543Z" fill="#434343"/>
</svg>
